<?xml version="1.0" standalone="no"?>
<!DOCTYPE svg PUBLIC "-//W3C//DTD SVG 20010904//EN"
 "http://www.w3.org/TR/2001/REC-SVG-20010904/DTD/svg10.dtd">
<svg version="1.0" xmlns="http://www.w3.org/2000/svg"
 width="512.000000pt" height="512.000000pt" viewBox="0 0 512.000000 512.000000"
 preserveAspectRatio="xMidYMid meet">
<metadata>
Created by potrace 1.16, written by Peter Selinger 2001-2019
</metadata>
<g transform="translate(0.000000,512.000000) scale(0.100000,-0.100000)"
fill="#c4c4c4" stroke="none">
<path d="M2073 5100 c-17 -10 -36 -28 -42 -38 -34 -64 -1881 -4897 -1881
-4923 0 -45 27 -96 65 -119 31 -19 49 -20 421 -20 368 0 391 1 421 20 17 10
37 28 43 40 6 12 119 319 251 683 132 364 244 674 250 689 l11 28 908 0 c717
0 909 -3 913 -12 3 -7 123 -319 267 -692 143 -374 266 -688 271 -698 6 -11 25
-28 42 -38 30 -19 54 -20 446 -20 397 0 415 1 446 20 44 27 69 81 62 134 -4
32 -1929 4757 -1994 4893 -8 18 -30 42 -48 53 -31 19 -49 20 -426 20 -372 0
-396 -1 -426 -20z m513 -1400 c49 -138 481 -1289 529 -1412 7 -17 -26 -18
-599 -18 -377 0 -606 4 -606 10 0 5 108 296 239 647 131 351 265 719 297 817
42 131 60 174 66 160 4 -10 37 -102 74 -204z"/>
</g>
</svg>
