<?xml version="1.0" standalone="no"?>
<!DOCTYPE svg PUBLIC "-//W3C//DTD SVG 20010904//EN"
 "http://www.w3.org/TR/2001/REC-SVG-20010904/DTD/svg10.dtd">
<svg version="1.0" xmlns="http://www.w3.org/2000/svg"
 width="512.000000pt" height="512.000000pt" viewBox="0 0 512.000000 512.000000"
 preserveAspectRatio="xMidYMid meet">
<metadata>
Created by potrace 1.16, written by Peter Selinger 2001-2019
</metadata>
<g transform="translate(0.000000,512.000000) scale(0.100000,-0.100000)"
fill="#c4c4c4" stroke="none">
<path d="M2240 5105 c-389 -48 -766 -188 -1091 -404 -504 -335 -871 -825
-1043 -1395 -41 -132 -81 -333 -96 -468 -13 -125 -13 -431 0 -556 108 -1014
825 -1880 1804 -2176 132 -41 333 -81 468 -96 125 -13 431 -13 556 0 592 63
1141 332 1563 766 289 299 494 645 613 1038 74 243 106 468 106 746 0 209 -10
324 -46 505 -181 920 -867 1676 -1768 1949 -132 41 -333 81 -468 96 -131 14
-469 11 -598 -5z m1580 -1332 c-21 -49 -200 -455 -397 -903 l-358 -815 -815
-358 c-448 -197 -854 -375 -902 -397 l-86 -38 38 86 c22 48 200 454 397 902
l358 815 900 397 c495 218 901 397 902 397 1 1 -16 -38 -37 -86z"/>
<path d="M2485 2876 c-150 -36 -245 -186 -217 -340 37 -197 245 -300 427 -211
245 119 201 489 -64 552 -66 15 -80 15 -146 -1z"/>
</g>
</svg>
