<?xml version="1.0" standalone="no"?>
<!DOCTYPE svg PUBLIC "-//W3C//DTD SVG 20010904//EN"
 "http://www.w3.org/TR/2001/REC-SVG-20010904/DTD/svg10.dtd">
<svg version="1.0" xmlns="http://www.w3.org/2000/svg"
 width="512.000000pt" height="512.000000pt" viewBox="0 0 512.000000 512.000000"
 preserveAspectRatio="xMidYMid meet">
<metadata>
Created by potrace 1.16, written by Peter Selinger 2001-2019
</metadata>
<g transform="translate(0.000000,512.000000) scale(0.100000,-0.100000)"
fill="#c4c4c4" stroke="none">
<path d="M4805 5101 c-240 -90 -4689 -1918 -4719 -1939 -55 -38 -86 -100 -86
-174 0 -91 38 -155 115 -196 16 -8 528 -106 1137 -217 609 -111 1111 -204
1115 -208 3 -4 97 -506 209 -1115 111 -610 209 -1122 217 -1138 23 -44 75 -92
115 -105 19 -6 62 -9 97 -7 73 4 131 38 165 95 11 19 453 1090 982 2381 l961
2347 1 81 c1 72 -2 85 -26 120 -44 63 -90 88 -167 91 -46 2 -81 -2 -116 -16z"/>
</g>
</svg>
