<?xml version="1.0" standalone="no"?>
<!DOCTYPE svg PUBLIC "-//W3C//DTD SVG 20010904//EN"
 "http://www.w3.org/TR/2001/REC-SVG-20010904/DTD/svg10.dtd">
<svg version="1.0" xmlns="http://www.w3.org/2000/svg"
 width="512.000000pt" height="512.000000pt" viewBox="0 0 512.000000 512.000000"
 preserveAspectRatio="xMidYMid meet">

<g transform="translate(0.000000,512.000000) scale(0.100000,-0.100000)"
fill="#c4c4c4" stroke="none">
<path d="M2750 5111 c-69 -22 -130 -73 -166 -141 -17 -31 -19 -65 -22 -327
l-3 -293 510 0 511 0 0 -255 0 -255 -510 0 -510 0 0 -255 0 -255 255 0 255 0
0 -255 0 -255 -255 0 -255 0 0 -260 0 -260 510 0 510 0 0 -255 0 -255 -510 0
-510 0 0 -255 0 -255 255 0 255 0 0 -255 0 -255 -256 0 -255 0 3 -292 c3 -278
4 -295 25 -333 25 -47 74 -95 123 -121 33 -18 75 -19 875 -19 l840 0 41 22
c22 12 57 40 77 62 72 80 67 -115 67 2471 0 2586 5 2391 -67 2471 -20 22 -55
50 -77 62 l-41 22 -825 2 c-454 1 -836 -2 -850 -6z"/>
<path d="M896 4533 l-376 -428 250 -3 250 -2 0 -2050 0 -2050 260 0 260 0 0
2050 0 2050 250 2 250 3 -376 428 c-206 235 -379 427 -384 427 -5 0 -178 -192
-384 -427z"/>
</g>
</svg>
