<?xml version="1.0" standalone="no"?>
<!DOCTYPE svg PUBLIC "-//W3C//DTD SVG 20010904//EN"
 "http://www.w3.org/TR/2001/REC-SVG-20010904/DTD/svg10.dtd">
<svg version="1.0" xmlns="http://www.w3.org/2000/svg"
 width="512.000000pt" height="512.000000pt" viewBox="0 0 512.000000 512.000000"
 preserveAspectRatio="xMidYMid meet">

<g transform="translate(0.000000,512.000000) scale(0.100000,-0.100000)"
fill="#c4c4c4" stroke="none">
<path d="M2430 5114 c-161 -18 -228 -29 -312 -50 -565 -141 -1030 -555 -1231
-1094 -128 -345 -150 -686 -67 -1060 109 -495 443 -1169 923 -1860 266 -383
781 -1035 817 -1035 36 0 551 652 817 1035 480 691 814 1365 923 1860 83 374
61 715 -67 1060 -220 593 -758 1028 -1388 1126 -91 14 -351 26 -415 18z m300
-1169 c226 -60 407 -254 456 -485 55 -262 -68 -546 -296 -680 -116 -69 -176
-84 -330 -84 -115 0 -145 3 -200 23 -139 48 -260 142 -341 266 -82 126 -118
321 -85 475 39 188 171 359 337 438 46 22 109 45 139 51 30 6 64 13 75 15 35
9 188 -3 245 -19z"/>
</g>
</svg>
