<?xml version="1.0" standalone="no"?>
<!DOCTYPE svg PUBLIC "-//W3C//DTD SVG 20010904//EN"
 "http://www.w3.org/TR/2001/REC-SVG-20010904/DTD/svg10.dtd">
<svg version="1.0" xmlns="http://www.w3.org/2000/svg"
 width="512.000000pt" height="512.000000pt" viewBox="0 0 512.000000 512.000000"
 preserveAspectRatio="xMidYMid meet">

<g transform="translate(0.000000,512.000000) scale(0.100000,-0.100000)"
fill="#c4c4c4" stroke="none">
<path d="M1780 5104 c-36 -7 -103 -32 -150 -55 -216 -107 -363 -355 -347 -585
9 -122 64 -208 169 -265 l63 -34 203 -3 202 -4 0 -159 0 -159 -192 0 c-229 0
-296 -12 -417 -72 -166 -82 -299 -253 -336 -433 -12 -59 -15 -276 -15 -1415 0
-1499 -3 -1420 70 -1565 89 -176 248 -300 439 -341 100 -21 2084 -20 2186 1
213 44 404 218 478 435 l22 65 3 1372 c3 1536 6 1449 -69 1603 -81 164 -255
298 -434 335 -47 10 -133 15 -262 15 l-193 0 0 159 0 159 203 4 c196 3 203 4
253 30 75 40 107 70 143 138 118 222 -38 585 -309 719 -146 71 -137 71 -935
70 -568 0 -723 -3 -775 -15z"/>
</g>
</svg>
